{
	"asset":{
		"generator":"Khronos glTF Blender I/O v3.6.27",
		"version":"2.0"
	},
	"scene":0,
	"scenes":[
		{
			"name":"Scene",
			"nodes":[
				0,
				1,
				2,
				3
			]
		}
	],
	"nodes":[
		{
			"mesh":0,
			"name":"Cylinder",
			"rotation":[
				0.037775494158267975,
				-0.021809691563248634,
				-0.8652011752128601,
				0.4995240867137909
			],
			"translation":[
				-3.1233901977539062,
				-0.971871554851532,
				1.0262227058410645
			]
		},
		{
			"mesh":1,
			"name":"Cylinder.001",
			"rotation":[
				-0.03690622001886368,
				-0.04648764431476593,
				0.8646888732910156,
				0.4987888038158417
			],
			"translation":[
				-3.1076912879943848,
				0.9804023504257202,
				-0.783036470413208
			]
		},
		{
			"mesh":2,
			"name":"Cylinder.002",
			"rotation":[
				0.037775494158267975,
				0.021809691563248634,
				0.8652011752128601,
				0.4995240867137909
			],
			"translation":[
				3.132340908050537,
				-0.9644113183021545,
				0.9999999403953552
			]
		},
		{
			"mesh":3,
			"name":"Cylinder.003",
			"rotation":[
				0.006706527899950743,
				-0.029051847755908966,
				-0.8654500246047974,
				0.5001072883605957
			],
			"translation":[
				3.132340908050537,
				1.0471787452697754,
				-1.0000001192092896
			]
		}
	],
	"materials":[
		{
			"doubleSided":true,
			"name":"Material.001",
			"pbrMetallicRoughness":{
				"baseColorFactor":[
					0.05447955057024956,
					0.2345501333475113,
					0.9046609997749329,
					1
				],
				"metallicFactor":0,
				"roughnessFactor":0.5
			}
		},
		{
			"doubleSided":true,
			"name":"Material.002",
			"pbrMetallicRoughness":{
				"baseColorFactor":[
					0.8227861523628235,
					0.056128259748220444,
					0.03560135141015053,
					1
				],
				"metallicFactor":0,
				"roughnessFactor":0.5
			}
		},
		{
			"doubleSided":true,
			"name":"Material.003",
			"pbrMetallicRoughness":{
				"baseColorFactor":[
					0.9646861553192139,
					0.5028860569000244,
					0.0012142767664045095,
					1
				],
				"metallicFactor":0,
				"roughnessFactor":0.5
			}
		},
		{
			"doubleSided":true,
			"name":"Material.004",
			"pbrMetallicRoughness":{
				"baseColorFactor":[
					0.03433946147561073,
					0.39157235622406006,
					0.08650054037570953,
					1
				],
				"metallicFactor":0,
				"roughnessFactor":0.5
			}
		}
	],
	"meshes":[
		{
			"name":"Cylinder.003",
			"primitives":[
				{
					"attributes":{
						"POSITION":0,
						"NORMAL":1,
						"TEXCOORD_0":2
					},
					"indices":3,
					"material":0
				}
			]
		},
		{
			"name":"Cylinder.004",
			"primitives":[
				{
					"attributes":{
						"POSITION":4,
						"NORMAL":5,
						"TEXCOORD_0":6
					},
					"indices":3,
					"material":1
				}
			]
		},
		{
			"name":"Cylinder.005",
			"primitives":[
				{
					"attributes":{
						"POSITION":7,
						"NORMAL":8,
						"TEXCOORD_0":9
					},
					"indices":3,
					"material":2
				}
			]
		},
		{
			"name":"Cylinder.006",
			"primitives":[
				{
					"attributes":{
						"POSITION":10,
						"NORMAL":11,
						"TEXCOORD_0":12
					},
					"indices":3,
					"material":3
				}
			]
		}
	],
	"accessors":[
		{
			"bufferView":0,
			"componentType":5126,
			"count":362,
			"max":[
				1,
				2.992792844772339,
				1
			],
			"min":[
				-1,
				-0.005319148767739534,
				-1
			],
			"type":"VEC3"
		},
		{
			"bufferView":1,
			"componentType":5126,
			"count":362,
			"type":"VEC3"
		},
		{
			"bufferView":2,
			"componentType":5126,
			"count":362,
			"type":"VEC2"
		},
		{
			"bufferView":3,
			"componentType":5123,
			"count":1632,
			"type":"SCALAR"
		},
		{
			"bufferView":4,
			"componentType":5126,
			"count":362,
			"max":[
				1,
				2.992792844772339,
				1
			],
			"min":[
				-1,
				-0.005319148767739534,
				-1
			],
			"type":"VEC3"
		},
		{
			"bufferView":5,
			"componentType":5126,
			"count":362,
			"type":"VEC3"
		},
		{
			"bufferView":6,
			"componentType":5126,
			"count":362,
			"type":"VEC2"
		},
		{
			"bufferView":7,
			"componentType":5126,
			"count":362,
			"max":[
				1,
				2.992792844772339,
				1
			],
			"min":[
				-1,
				-0.005319148767739534,
				-1
			],
			"type":"VEC3"
		},
		{
			"bufferView":8,
			"componentType":5126,
			"count":362,
			"type":"VEC3"
		},
		{
			"bufferView":9,
			"componentType":5126,
			"count":362,
			"type":"VEC2"
		},
		{
			"bufferView":10,
			"componentType":5126,
			"count":362,
			"max":[
				1,
				2.992792844772339,
				1
			],
			"min":[
				-1,
				-0.005319148767739534,
				-1
			],
			"type":"VEC3"
		},
		{
			"bufferView":11,
			"componentType":5126,
			"count":362,
			"type":"VEC3"
		},
		{
			"bufferView":12,
			"componentType":5126,
			"count":362,
			"type":"VEC2"
		}
	],
	"bufferViews":[
		{
			"buffer":0,
			"byteLength":4344,
			"byteOffset":0,
			"target":34962
		},
		{
			"buffer":0,
			"byteLength":4344,
			"byteOffset":4344,
			"target":34962
		},
		{
			"buffer":0,
			"byteLength":2896,
			"byteOffset":8688,
			"target":34962
		},
		{
			"buffer":0,
			"byteLength":3264,
			"byteOffset":11584,
			"target":34963
		},
		{
			"buffer":0,
			"byteLength":4344,
			"byteOffset":14848,
			"target":34962
		},
		{
			"buffer":0,
			"byteLength":4344,
			"byteOffset":19192,
			"target":34962
		},
		{
			"buffer":0,
			"byteLength":2896,
			"byteOffset":23536,
			"target":34962
		},
		{
			"buffer":0,
			"byteLength":4344,
			"byteOffset":26432,
			"target":34962
		},
		{
			"buffer":0,
			"byteLength":4344,
			"byteOffset":30776,
			"target":34962
		},
		{
			"buffer":0,
			"byteLength":2896,
			"byteOffset":35120,
			"target":34962
		},
		{
			"buffer":0,
			"byteLength":4344,
			"byteOffset":38016,
			"target":34962
		},
		{
			"buffer":0,
			"byteLength":4344,
			"byteOffset":42360,
			"target":34962
		},
		{
			"buffer":0,
			"byteLength":2896,
			"byteOffset":46704,
			"target":34962
		}
	],
	"buffers":[
		{
			"byteLength":49600,
			"uri":"Logo.bin"
		}
	]
}
